#!OML:ASF I:\Actors\actors\Patient Classification 1\Patient 1\Session 1\Subject1.ASF
:FULLY-SPECIFIED
:DEGREES
192
root 0.891842 17.6298 9.3097 17.8614 -34.5345 -4.55152
lowerback 6.8751 -8.16173 12.0522
upperback -5.47478 -9.03181 8.37526
thorax -10.3374 -4.88295 3.99758
lowerneck -13.1399 -6.63689 -3.15111
upperneck 8.71721 -8.12897 -2.0387
head 4.79052 -4.23428 -0.773402
rclavicle -1.11319e-014 6.52014e-014
rhumerus 24.8609 3.89675 -72.3368
rradius 35.992
rwrist 18.7326
rhand 21.0044 -57.9199
rfingers 7.12502
rthumb 45.4696 -81.232
lclavicle -1.11319e-014 6.52014e-014
lhumerus 27.6879 -13.2144 116.897
lradius 13.6669
lwrist -14.6641
lhand -9.44827 8.02197
lfingers 7.12502
lthumb 16.5149 37.3391
rfemur -27.6385 31.9725 8.94744
rtibia 12.5785
rfoot -8.78223 -0.871124
rtoes -7.78491
lfemur 3.55349 -42.3747 -21.8283
ltibia -5.22374
lfoot -74.7788 57.7733
ltoes 41.6419
193
root 0.877244 17.6489 9.30679 17.4873 -35.1873 -2.56389
lowerback 6.51569 -7.96773 10.5359
upperback -5.6626 -9.00491 8.11439
thorax -10.1046 -4.79133 4.42622
lowerneck -13.1189 -6.61533 -3.34718
upperneck 8.52884 -8.09197 -1.81862
head 4.74562 -4.20633 -0.66807
rclavicle 5.64548e-014 -5.08889e-014
rhumerus 25.0227 3.56494 -72.5118
rradius 35.6341
rwrist 17.0735
rhand 20.5047 -58.524
rfingers 7.12502
rthumb 45.0049 -82.0216
lclavicle 5.64548e-014 -5.08889e-014
lhumerus 27.6546 -15.1083 115.836
lradius 14.1251
lwrist -11.3564
lhand -9.06869 9.20366
lfingers 7.12502
lthumb 16.8803 38.49
rfemur -29.0495 31.8266 6.20473
rtibia 12.8371
rfoot -8.86138 -0.964888
rtoes -7.91628
lfemur 2.35324 -43.1372 -22.9957
ltibia -4.88849
lfoot -75.5032 58.1211
ltoes 41.4046
194
root 0.868257 17.6572 9.30372 17.4198 -35.4279 -1.74011
lowerback 6.47597 -7.91872 10.0397
upperback -5.71242 -8.99895 8.06778
thorax -10.056 -4.76031 4.62329
lowerneck -13.1321 -6.54371 -3.45233
upperneck 8.37185 -7.9947 -1.66378
head 4.7091 -4.15049 -0.593706
rclavicle -1.62606e-013 1.90833e-014
rhumerus 25.084 3.60333 -72.4562
rradius 35.5547
rwrist 15.3191
rhand 20.0014 -58.9013
rfingers 7.12502
rthumb 44.5364 -82.5812
lclavicle -1.62606e-013 1.90833e-014
lhumerus 27.7483 -18.1354 113.916
lradius 14.5034
lwrist -8.24108
lhand -12.4514 9.89288
lfingers 7.12502
lthumb 13.6219 39.4272
rfemur -29.7415 31.7832 5.0119
rtibia 12.943
rfoot -8.92217 -1.09502
rtoes -8.26173
lfemur 1.63135 -43.1789 -23.2842
ltibia -4.71438
lfoot -75.568 57.6386
ltoes 41.7557
195
root 0.863063 17.6538 9.29927 17.6773 -35.2678 -2.12676
lowerback 6.73286 -7.98833 10.5848
upperback -5.58284 -8.99015 8.2138
thorax -10.1358 -4.78002 4.53252
lowerneck -13.1039 -6.46403 -3.28821
upperneck 8.0311 -7.91038 -1.77944
head 4.58655 -4.10899 -0.638334
rclavicle -1.55052e-013 2.70347e-014
rhumerus 25.1075 3.76337 -72.3343
rradius 35.7539
rwrist 14.0347
rhand 20.208 -58.9003
rfingers 7.12502
rthumb 44.7288 -82.5059
lclavicle -1.55052e-013 2.70347e-014
lhumerus 28.0442 -19.8649 112.657
lradius 15.2126
lwrist -3.96978
lhand -11.8753 11.1285
lfingers 7.12502
lthumb 14.1772 40.6248
rfemur -29.7007 31.8943 5.43234
rtibia 12.9352
rfoot -8.9528 -1.25104
rtoes -8.8097
lfemur 1.63127 -42.9862 -22.8286
ltibia -4.80514
lfoot -75.1089 57.299
ltoes 41.8357
196
root 0.865492 17.6375 9.29363 18.4018 -34.5673 -3.86573
lowerback 7.26255 -8.18579 12.3877
upperback -5.36248 -8.94482 8.60571
thorax -10.4597 -4.84794 4.11726
lowerneck -13.0503 -6.43597 -3.11454
upperneck 7.72654 -7.89386 -1.94234
head 4.46952 -4.10388 -0.704165
rclavicle -8.26944e-014 -9.54166e-015
rhumerus 24.9674 4.37999 -71.8348
rradius 36.4264
rwrist 12.4975
rhand 20.847 -59.3497
rfingers 7.12502
rthumb 45.3233 -82.7208
lclavicle -8.26944e-014 -9.54166e-015
lhumerus 28.3325 -22.5542 110.704
lradius 16.1086
lwrist -0.287506
lhand -12.239 11.9016
lfingers 7.12502
lthumb 13.8266 41.4221
rfemur -29.0142 32.1003 7.55392
rtibia 12.8177
rfoot -8.96954 -1.45235
rtoes -9.05759
lfemur 2.10332 -42.3365 -21.278
ltibia -5.15169
lfoot -73.2387 57.4943
ltoes 41.1608
197
root 0.860153 17.6375 9.29035 18.5922 -34.5893 -3.88057
lowerback 7.3167 -8.15469 12.5357
upperback -5.35846 -8.87297 8.63739
thorax -10.5059 -4.82144 4.07376
lowerneck -12.9839 -6.44059 -3.05727
upperneck 7.64703 -7.91144 -1.97127
head 4.43069 -4.11197 -0.718842
rclavicle 5.24792e-014 1.74931e-014
rhumerus 24.5807 5.47529 -70.8768
rradius 37.5614
rwrist 10.4803
rhand 21.1703 -60.0693
rfingers 7.12502
rthumb 45.6237 -83.3189
lclavicle 5.24792e-014 1.74931e-014
lhumerus 28.5648 -25.6188 108.524
lradius 17.1143
lwrist 2.77172
lhand -13.8716 12.3369
lfingers 7.12502
lthumb 12.2529 41.958
rfemur -29.2967 32.1567 7.41208
rtibia 12.8421
rfoot -8.97993 -1.53744
rtoes -8.86596
lfemur 1.82189 -42.2893 -21.0224
ltibia -5.16866
lfoot -72.9259 57.6304
ltoes 40.9321
198
root 0.854593 17.6385 9.28839 18.7095 -34.661 -3.87528
lowerback 7.34993 -8.11381 12.6339
upperback -5.33152 -8.80371 8.61451
thorax -10.5131 -4.79417 3.98803
lowerneck -12.9128 -6.45083 -2.95776
upperneck 7.62781 -7.94331 -1.99513
head 4.40831 -4.1258 -0.740713
rclavicle -8.15017e-014 3.33958e-014
rhumerus 24.0701 6.86348 -69.6026
rradius 39.0274
rwrist 8.09122
rhand 21.2809 -60.2607
rfingers 7.12502
rthumb 45.7264 -83.4683
lclavicle -8.15017e-014 3.33958e-014
lhumerus 28.6038 -27.9512 106.882
lradius 18.3358
lwrist 4.90484
lhand -14.4131 12.2853
lfingers 7.12502
lthumb 11.7308 41.9368
rfemur -29.4634 32.2055 7.31146
rtibia 12.8196
rfoot -8.99547 -1.55413
rtoes -8.90618
lfemur 1.66461 -42.3207 -20.9047
ltibia -5.1573
lfoot -72.9199 57.6702
ltoes 40.8037
